<svg xmlns="http://www.w3.org/2000/svg" viewBox="0 0 13 13">
  <defs>
    <style>
      .cls-1 {
        fill: #c0c5ce;
      }
    </style>
  </defs>
  <path id="ic_language_24px" class="cls-1" d="M8.493,2A6.5,6.5,0,1,0,15,8.5,6.5,6.5,0,0,0,8.493,2ZM13,5.9H11.08a10.172,10.172,0,0,0-.9-2.314A5.219,5.219,0,0,1,13,5.9ZM8.5,3.326A9.156,9.156,0,0,1,9.741,5.9H7.259A9.156,9.156,0,0,1,8.5,3.326ZM3.469,9.8a5.084,5.084,0,0,1,0-2.6h2.2a10.735,10.735,0,0,0-.091,1.3,10.735,10.735,0,0,0,.091,1.3ZM4,11.1H5.92a10.172,10.172,0,0,0,.9,2.314A5.191,5.191,0,0,1,4,11.1ZM5.92,5.9H4A5.191,5.191,0,0,1,6.817,3.586a10.172,10.172,0,0,0-.9,2.314ZM8.5,13.674A9.156,9.156,0,0,1,7.259,11.1H9.741A9.156,9.156,0,0,1,8.5,13.674ZM10.021,9.8H6.979a9.563,9.563,0,0,1-.1-1.3,9.48,9.48,0,0,1,.1-1.3h3.042a9.48,9.48,0,0,1,.1,1.3A9.563,9.563,0,0,1,10.021,9.8Zm.162,3.614a10.172,10.172,0,0,0,.9-2.314H13A5.219,5.219,0,0,1,10.183,13.414ZM11.334,9.8a10.735,10.735,0,0,0,.091-1.3,10.735,10.735,0,0,0-.091-1.3h2.2a5.085,5.085,0,0,1,0,2.6Z" transform="translate(-2 -2)"/>
</svg>
