<svg xmlns="http://www.w3.org/2000/svg" viewBox="0 0 16 13.824">
  <defs>
    <style>
      .cls-1 {
        fill: #a4a5b7;
      }
    </style>
  </defs>
  <path id="ic_visibility_off_24px" class="cls-1" d="M9,5.91a3.639,3.639,0,0,1,3.638,3.638,3.531,3.531,0,0,1-.262,1.332L14.5,13A8.6,8.6,0,0,0,17,9.548,8.605,8.605,0,0,0,9,4.091,8.473,8.473,0,0,0,6.1,4.6L7.672,6.172A3.531,3.531,0,0,1,9,5.91ZM1.728,3.924,3.387,5.583l.335.335A8.589,8.589,0,0,0,1,9.548a8.6,8.6,0,0,0,11.191,4.846l.306.306,2.132,2.125.924-.924L2.652,3ZM5.751,7.948,6.879,9.075a2.053,2.053,0,0,0-.058.473A2.18,2.18,0,0,0,9,11.731a2.053,2.053,0,0,0,.473-.058L10.6,12.8A3.614,3.614,0,0,1,5.751,7.948ZM8.887,7.38l2.292,2.292.015-.116A2.18,2.18,0,0,0,9.011,7.373Z" transform="translate(-1 -3)"/>
</svg>
