<svg xmlns="http://www.w3.org/2000/svg" viewBox="0 0 16 16">
  <defs>
    <style>
      .cls-1 {
        fill: #a4a5b7;
      }
    </style>
  </defs>
  <g id="icon_help-center" transform="translate(-327 -91)">
    <path id="Pfad_107" data-name="Pfad 107" class="cls-1" d="M8,0a8,8,0,1,0,8,8A8.024,8.024,0,0,0,8,0ZM8,10a2,2,0,1,1,2-2A2.006,2.006,0,0,1,8,10ZM8,2a5.834,5.834,0,0,1,2.6.6L9.044,4.156a3.591,3.591,0,0,0-2.089,0L5.4,2.6A5.834,5.834,0,0,1,8,2ZM2,8a5.834,5.834,0,0,1,.6-2.6L4.156,6.956a3.591,3.591,0,0,0,0,2.089L2.6,10.6A5.834,5.834,0,0,1,2,8Zm6,6a5.834,5.834,0,0,1-2.6-.6l1.556-1.556a3.591,3.591,0,0,0,2.089,0L10.6,13.4A5.834,5.834,0,0,1,8,14Zm5.4-3.4L11.844,9.044a3.591,3.591,0,0,0,0-2.089L13.4,5.4a5.933,5.933,0,0,1,0,5.2Z" transform="translate(327 91)"/>
  </g>
</svg>
