<svg xmlns="http://www.w3.org/2000/svg" viewBox="0 0 16 16">
  <defs>
    <style>
      .cls-1 {
        fill: #a4a5b7;
      }
    </style>
  </defs>
  <g id="icon_search" transform="translate(-270 -27)">
    <path id="icon_search-2" data-name="icon_search" class="cls-1" d="M12.7,11.23a6.777,6.777,0,0,0,1.4-4.174A7.02,7.02,0,0,0,7.1,0,7.105,7.105,0,0,0,0,7.056a7.105,7.105,0,0,0,7.1,7.056,6.667,6.667,0,0,0,4.2-1.391l3,2.981a.971.971,0,0,0,1.4,0,.957.957,0,0,0,0-1.391Zm-5.6.8A5.022,5.022,0,0,1,2,7.056a5.1,5.1,0,0,1,10.2,0A5.022,5.022,0,0,1,7.1,12.025Z" transform="translate(270 27)"/>
  </g>
</svg>
