<svg xmlns="http://www.w3.org/2000/svg" viewBox="0 0 11.637 16">
  <defs>
    <style>
      .cls-1 {
        fill: #fff;
        opacity: 0.8;
      }
    </style>
  </defs>
  <path id="ic_sync_24px" class="cls-1" d="M9.818,3.182V1L6.909,3.909,9.818,6.818V4.636A4.367,4.367,0,0,1,14.182,9a4.269,4.269,0,0,1-.509,2.036L14.735,12.1A5.808,5.808,0,0,0,9.818,3.182Zm0,10.182A4.367,4.367,0,0,1,5.455,9a4.269,4.269,0,0,1,.509-2.036L4.9,5.9a5.808,5.808,0,0,0,4.916,8.916V17l2.909-2.909L9.818,11.182Z" transform="translate(-4 -1)"/>
</svg>
