<svg xmlns="http://www.w3.org/2000/svg" viewBox="0 0 16 16">
  <defs>
    <style>
      .cls-1 {
        fill: #a4a5b7;
      }
    </style>
  </defs>
  <path id="ic_public_24px" class="cls-1" d="M10,2a8,8,0,1,0,8,8A8,8,0,0,0,10,2ZM9.2,16.344A6.391,6.391,0,0,1,3.6,10a6.494,6.494,0,0,1,.168-1.432L7.6,12.4v.8a1.6,1.6,0,0,0,1.6,1.6Zm5.52-2.032A1.587,1.587,0,0,0,13.2,13.2h-.8V10.8a.8.8,0,0,0-.8-.8H6.8V8.4H8.4a.8.8,0,0,0,.8-.8V6h1.6a1.6,1.6,0,0,0,1.6-1.6V4.072a6.386,6.386,0,0,1,2.32,10.24Z" transform="translate(-2 -2)"/>
</svg>
